<svg width="24" height="24" viewBox="0 0 24 24" fill="none" xmlns="http://www.w3.org/2000/svg">
<path d="M18.1869 5.925C17.8869 5.5875 17.4744 5.4375 17.0244 5.4375H6.2619C5.8119 5.4375 5.3994 5.8125 5.3994 6.3C5.3994 6.7875 5.7744 7.1625 6.2619 7.1625H16.8369L16.4244 9.4125H7.2369C6.7869 9.4125 6.3744 9.7875 6.3744 10.275C6.3744 10.7625 6.7494 11.1375 7.2369 11.1375H16.1619L15.4494 15.15L12.2244 16.3125L8.9994 15.075L8.5869 13.0125C8.5119 12.5625 8.0619 12.2625 7.5744 12.3375C7.1244 12.4125 6.8244 12.8625 6.8994 13.35L7.3494 15.6C7.4244 16.05 7.7619 16.425 8.2119 16.575L11.7369 17.85C11.8869 17.8875 12.0369 17.925 12.1869 17.925C12.3369 17.925 12.4869 17.8875 12.6369 17.85L16.1619 16.575C16.6119 16.425 16.9494 16.0125 17.0244 15.5625L18.5244 7.2C18.5994 6.75 18.4869 6.3375 18.1869 5.9625V5.925Z" fill="black"/>
<path d="M21.9373 1.61257C21.3748 1.01257 20.5873 0.637573 19.7623 0.637573H4.23728C3.41229 0.675073 2.62479 1.01257 2.06229 1.61257C1.49979 2.21257 1.23729 3.07507 1.34979 3.86257L3.18729 19.3501C3.33729 20.5501 4.23728 21.5626 5.39978 21.8251L11.3248 23.2501C11.5498 23.2876 11.7748 23.3251 11.9998 23.3251C12.2248 23.3251 12.4498 23.2876 12.6748 23.2501L18.5998 21.8626C19.7623 21.6001 20.6623 20.5876 20.8123 19.3876L22.6498 3.90007C22.7248 3.07507 22.4623 2.25007 21.9373 1.61257ZM20.9623 3.71257L19.1248 19.2001C19.0498 19.6876 18.7123 20.1001 18.1873 20.2501L12.2623 21.6376C12.0748 21.6751 11.8873 21.6751 11.6998 21.6376L5.81228 20.2501C5.32478 20.1376 4.94978 19.7251 4.87478 19.2001L3.03729 3.71257C2.99979 3.33757 3.11229 3.00007 3.33729 2.73757C3.56229 2.47507 3.89978 2.32507 4.23728 2.32507H19.7623C20.0998 2.32507 20.4373 2.47507 20.6623 2.73757C20.8873 3.00007 20.9998 3.33757 20.9623 3.71257Z" fill="black"/>
</svg>
