<svg width="24" height="24" viewBox="0 0 24 24" fill="none" xmlns="http://www.w3.org/2000/svg">
<path d="M12.1872 17.7376C11.9997 17.7376 11.8497 17.7001 11.6997 17.6251L8.69966 16.4251C8.24966 16.2376 7.94966 15.8626 7.87466 15.4126L7.53716 13.5376C7.46216 13.0876 7.76216 12.6376 8.21216 12.5626C8.66216 12.4876 9.11216 12.7876 9.18716 13.2376L9.48716 14.9251L12.1872 16.0126L14.8872 14.8876L15.5622 11.5501H8.51216C7.87466 11.5501 7.31216 11.1001 7.19966 10.4251L6.67466 7.42507C6.59966 7.01257 6.71216 6.56257 6.97466 6.22507L7.01216 6.18757C7.31216 5.88757 7.68716 5.70007 8.13716 5.70007H16.8372C17.2872 5.70007 17.6997 6.07507 17.6997 6.56257C17.6997 7.05007 17.3247 7.42507 16.8372 7.42507H8.36216L8.81216 9.90007H16.0122C16.4247 9.90007 16.7997 10.0876 17.0622 10.3876C17.3247 10.6876 17.4372 11.1001 17.3247 11.5126L16.5372 15.3751C16.4622 15.8251 16.1622 16.2001 15.7497 16.3501L12.7497 17.5876C12.5622 17.7001 12.3747 17.7376 12.1872 17.7376Z" fill="black"/>
<path d="M12 23.3249C11.775 23.3249 11.55 23.2874 11.325 23.2499L5.4 21.8624C4.2375 21.5999 3.33751 20.5874 3.18751 19.3874L1.35001 3.89993C1.27501 3.07493 1.53751 2.24993 2.06251 1.61243C2.62501 1.01243 3.41251 0.674927 4.2375 0.674927H19.7625C20.5875 0.674927 21.375 1.01243 21.9375 1.64993C22.5 2.24993 22.7625 3.11243 22.65 3.89993L20.8125 19.3874C20.6625 20.5874 19.7625 21.5999 18.6 21.8624L12.675 23.2499C12.45 23.3249 12.225 23.3249 12 23.3249ZM4.2375 2.36243C3.9 2.36243 3.56251 2.51243 3.33751 2.77493C3.11251 2.99993 3.00001 3.33743 3.03751 3.71243L4.875 19.1999C4.95 19.6874 5.2875 20.0999 5.8125 20.2499L11.7375 21.6374C11.925 21.6749 12.1125 21.6749 12.3 21.6374L18.1875 20.2499C18.675 20.1374 19.05 19.7249 19.125 19.1999L20.9625 3.71243C21 3.33743 20.8875 2.99993 20.6625 2.73743C20.4375 2.47493 20.1 2.32493 19.7625 2.32493H4.2375V2.36243Z" fill="black"/>
</svg>
