<svg width="24" height="24" viewBox="0 0 24 24" fill="none" xmlns="http://www.w3.org/2000/svg">
<g clip-path="url(#clip0_107_18)">
<mask id="mask0_107_18" style="mask-type:luminance" maskUnits="userSpaceOnUse" x="0" y="0" width="24" height="24">
<path d="M24 0H0V24H24V0Z" fill="white"/>
</mask>
<g mask="url(#mask0_107_18)">
<path d="M14.0883 2.67708C13.0787 1.48565 12.2088 0.267161 12.0322 0.0171178C12.0285 0.0118355 12.0236 0.0075189 12.0179 0.0045378C12.0122 0.00155674 12.0059 -5.50463e-07 11.9995 1.45958e-10C11.9931 5.50751e-07 11.9867 0.00155861 11.981 0.00454065C11.9753 0.00752273 11.9704 0.0118399 11.9668 0.0171228C11.7902 0.267171 10.9205 1.48566 9.91087 2.67708C1.25743 13.7012 11.2767 21.139 11.2767 21.139L11.3579 21.1954C11.4339 22.3462 11.6226 24 11.6226 24H12.3766C12.3766 24 12.5645 22.3533 12.6408 21.2029L12.7225 21.139C12.7225 21.139 22.7417 13.7012 14.0883 2.67708ZM11.9996 20.9774C11.9996 20.9774 11.5504 20.5943 11.4292 20.4023L11.428 20.3816L11.9713 8.37952C11.9717 8.37225 11.9748 8.36539 11.98 8.36036C11.9853 8.35534 11.9923 8.35252 11.9996 8.35252C12.0069 8.35252 12.0139 8.35534 12.0191 8.36036C12.0244 8.36539 12.0275 8.37225 12.0278 8.37952L12.5711 20.3816L12.5701 20.4022C12.4489 20.5941 11.9996 20.9774 11.9996 20.9774Z" fill="black"/>
</g>
</g>
<defs>
<clipPath id="clip0_107_18">
<rect width="24" height="24" fill="white"/>
</clipPath>
</defs>
</svg>
