<svg width="24" height="24" viewBox="0 0 24 24" fill="none" xmlns="http://www.w3.org/2000/svg">
<g clip-path="url(#clip0_107_4)">
<mask id="mask0_107_4" style="mask-type:luminance" maskUnits="userSpaceOnUse" x="0" y="0" width="24" height="24">
<path d="M24 0H0V24H24V0Z" fill="white"/>
</mask>
<g mask="url(#mask0_107_4)">
<path d="M11.9903 24C11.6806 24 11.3323 23.9613 11.0613 23.729L8.11935 21.9871C7.69357 21.7161 7.88711 21.6774 8.08065 21.6C8.6613 21.4452 8.77744 21.329 9.39679 21.0194C9.43549 20.9807 9.55163 20.9807 9.62903 21.0581L11.8742 22.4129C11.9129 22.4516 12.029 22.4516 12.1452 22.4129L20.9323 17.342C20.971 17.3032 21.0871 17.1871 21.0871 17.1097V6.92902C21.0871 6.81289 21.0484 6.77419 20.9323 6.69679L12.1065 1.70323C12.0678 1.66452 11.9516 1.66452 11.8355 1.70323L3.0871 6.77419C3.04839 6.81289 2.93226 6.92903 2.93226 7.00646V17.1097C2.93226 17.2258 2.97097 17.2645 3.0871 17.342L5.48711 18.6968C6.80325 19.3548 7.61614 18.5806 7.61614 17.7677V7.85805C7.61614 7.70321 7.73228 7.58711 7.88711 7.58711H9.00968C9.16451 7.58711 9.28065 7.70321 9.28065 7.85805V17.8452C9.28065 19.5871 8.35162 20.5548 6.72581 20.5548C6.18386 20.5548 5.87419 20.5548 4.71292 20.0129L2.42903 18.7355C1.8871 18.4258 1.5 17.8065 1.5 17.1097V6.92902C1.5 6.27097 1.80968 5.69033 2.42903 5.30321L11.1387 0.232258C11.6806 -0.0774194 12.4548 -0.0774194 12.9968 0.232258L21.7839 5.34195C22.3258 5.65163 22.7129 6.27098 22.7129 6.96773V17.071C22.7129 17.729 22.4033 18.3097 21.7839 18.6968L13.0355 23.729C12.6484 23.9613 12.3387 24 11.9903 24ZM19.0742 14.0129C19.0742 12.1161 17.8355 11.6129 15.0871 11.2258C12.3387 10.8387 12.1065 10.6839 12.1065 10.0258C12.1065 9.48386 12.3387 8.78711 14.3516 8.78711C16.1323 8.78711 16.7903 9.17419 17.0613 10.4129C17.1 10.529 17.1774 10.5677 17.3323 10.5677H18.4548C18.4936 10.5677 18.6097 10.529 18.6097 10.529C18.6097 10.529 18.6484 10.4129 18.6484 10.3742C18.4936 8.24516 17.0613 7.31614 14.3129 7.31614C11.7968 7.31614 10.2871 8.3613 10.2871 10.142C10.2871 12.0387 11.7968 12.5807 14.1581 12.8129C17.0226 13.0839 17.2548 13.5097 17.2548 14.0516C17.2548 15.0194 16.4807 15.4065 14.6613 15.4065C12.3387 15.4065 11.8355 14.8258 11.6806 13.6645C11.6419 13.5484 11.5645 13.4323 11.4097 13.4323H10.3645C10.2097 13.4323 10.0936 13.5484 10.0936 13.7032C10.0936 15.1742 10.8678 16.9548 14.7 16.9548C17.4871 17.0323 19.0742 15.9484 19.0742 14.0129Z" fill="black"/>
</g>
</g>
<defs>
<clipPath id="clip0_107_4">
<rect width="24" height="24" fill="white"/>
</clipPath>
</defs>
</svg>
