<svg width="24" height="24" viewBox="0 0 24 24" fill="none" xmlns="http://www.w3.org/2000/svg">
<g clip-path="url(#clip0_107_24)">
<path d="M17.1274 0C16.1949 0.00693645 15.2678 0.142549 14.3724 0.403001L14.3094 0.423C13.7446 0.323188 13.1728 0.268017 12.5994 0.258C11.4214 0.238 10.4094 0.523999 9.59336 1C8.78936 0.721001 7.12136 0.24 5.36336 0.336C4.13936 0.403001 2.80337 0.775001 1.81337 1.82C0.826372 2.865 0.304371 4.482 0.414374 6.68201C0.444374 7.28899 0.617373 8.27899 0.904372 9.561C1.19137 10.843 1.59437 12.344 2.09737 13.713C2.60037 15.083 3.15137 16.313 4.01239 17.149C4.44236 17.568 5.03437 17.92 5.73236 17.891C6.22237 17.871 6.66536 17.656 7.04737 17.339C7.23337 17.584 7.43239 17.691 7.61336 17.79C7.84136 17.915 8.06336 18 8.29339 18.056C8.70637 18.159 9.41336 18.297 10.2414 18.156C10.5234 18.109 10.8204 18.017 11.1164 17.886C11.1274 18.216 11.1404 18.539 11.1534 18.866C11.1944 19.902 11.2204 20.859 11.5314 21.698C11.5814 21.835 11.7184 22.541 12.2584 23.164C12.7984 23.788 13.8564 24.177 15.0614 23.919C15.9114 23.737 16.9924 23.409 17.7104 22.387C18.4204 21.377 18.7404 19.928 18.8034 17.578C18.8194 17.451 18.8384 17.343 18.8584 17.242L19.0274 17.257H19.0474C19.9544 17.298 20.9384 17.169 21.7604 16.787C22.4884 16.45 23.0394 16.109 23.4404 15.504C23.5404 15.354 23.6504 15.173 23.6804 14.861C23.7104 14.549 23.5314 14.061 23.2344 13.836C22.6394 13.384 22.2654 13.556 21.8644 13.639C21.4693 13.7263 21.0668 13.7752 20.6624 13.785C21.8184 11.838 22.6474 9.76999 23.1204 7.93999C23.4004 6.85999 23.5574 5.86399 23.5704 4.99301C23.5834 4.122 23.5124 3.351 22.9904 2.684C21.3594 0.6 19.0664 0.024 17.2924 0.00400001C17.2374 0.003 17.1824 0.002 17.1274 0.003V0ZM17.0804 0.640001C18.7584 0.624 20.9024 1.095 22.4414 3.062C22.7874 3.504 22.8904 4.15001 22.8784 4.94599C22.8654 5.74099 22.7184 6.693 22.4494 7.73599C21.9274 9.756 20.9414 12.111 19.5524 14.224C19.6014 14.2589 19.6545 14.2877 19.7104 14.31C20.0004 14.43 20.6614 14.533 21.9804 14.262C22.3124 14.192 22.5554 14.145 22.8074 14.337C22.8686 14.3889 22.917 14.4543 22.9488 14.528C22.9805 14.6018 22.9947 14.6819 22.9904 14.762C22.9769 14.8834 22.9321 14.9992 22.8604 15.098C22.6054 15.481 22.1024 15.844 21.4574 16.143C20.8864 16.409 20.0674 16.548 19.3414 16.556C18.9774 16.56 18.6414 16.532 18.3564 16.443L18.3384 16.436C18.2284 17.496 17.9754 19.589 17.8104 20.544C17.6784 21.314 17.4474 21.926 17.0064 22.384C16.5664 22.842 15.9434 23.118 15.1054 23.298C14.0674 23.521 13.3104 23.281 12.8224 22.87C12.3354 22.46 12.1124 21.916 11.9784 21.583C11.8864 21.353 11.8384 21.055 11.7924 20.657C11.7464 20.259 11.7124 19.772 11.6894 19.223C11.6587 18.3824 11.6487 17.5411 11.6594 16.7C11.2258 17.0972 10.687 17.361 10.1074 17.46C9.41839 17.577 8.80339 17.462 8.43637 17.37C8.25547 17.3246 8.0808 17.2571 7.91636 17.169C7.74637 17.078 7.58437 16.975 7.47637 16.772C7.41292 16.6557 7.39271 16.5207 7.41937 16.391C7.45316 16.2595 7.52989 16.143 7.63736 16.06C7.83536 15.899 8.09737 15.809 8.49236 15.727C9.21139 15.579 9.46237 15.478 9.61537 15.357C9.74539 15.253 9.89239 15.043 10.1524 14.735C10.1511 14.7213 10.1501 14.7077 10.1494 14.694C9.68407 14.6809 9.22837 14.5583 8.81936 14.336C8.66936 14.494 7.90339 15.304 6.96937 16.428C6.57637 16.898 6.14239 17.168 5.68436 17.187C5.22637 17.207 4.81237 16.976 4.46036 16.635C3.75739 15.952 3.19637 14.777 2.70737 13.449C2.21937 12.121 1.82237 10.642 1.54037 9.38201C1.25737 8.12201 1.09037 7.10599 1.06637 6.61601C0.961372 4.53401 1.44837 3.131 2.28337 2.246C3.11937 1.361 4.26536 1.026 5.38237 0.961999C7.38739 0.847001 9.29137 1.546 9.67639 1.696C10.4184 1.192 11.3744 0.877999 12.5684 0.898001C13.1352 0.905951 13.6993 0.979099 14.2494 1.116L14.2694 1.107C14.5115 1.02189 14.7582 0.950441 15.0084 0.892999C15.6876 0.734554 16.382 0.650393 17.0794 0.642L17.0804 0.640001ZM17.2324 1.31H17.0864C16.5135 1.31799 15.9427 1.3823 15.3824 1.502C16.6284 2.054 17.5694 2.904 18.2324 3.75199C18.6929 4.33913 19.0736 4.98476 19.3644 5.67199C19.4744 5.93599 19.5484 6.159 19.5904 6.33199C19.6114 6.41899 19.6254 6.492 19.6304 6.56801C19.6324 6.606 19.6344 6.645 19.6184 6.71201C19.6184 6.71501 19.6134 6.72199 19.6124 6.72499C19.6424 7.60099 19.4254 8.19499 19.3994 9.03101C19.3794 9.63701 19.5344 10.349 19.5724 11.126C19.6084 11.856 19.5204 12.658 19.0464 13.445C19.0864 13.493 19.1224 13.541 19.1604 13.589C20.4144 11.614 21.3184 9.429 21.8004 7.566C22.0584 6.56299 22.1954 5.65399 22.2074 4.93399C22.2174 4.21399 22.0834 3.692 21.9124 3.474C20.5704 1.758 18.7544 1.321 17.2324 1.309V1.31ZM12.4424 1.566C11.2604 1.569 10.4124 1.926 9.76939 2.461C9.10639 3.014 8.66137 3.771 8.36936 4.54601C8.02237 5.466 7.90339 6.35599 7.85636 6.96L7.86937 6.95201C8.22637 6.75199 8.69539 6.552 9.19736 6.43601C9.69937 6.321 10.2404 6.285 10.7304 6.47501C11.2204 6.66499 11.6254 7.11199 11.7724 7.78999C12.4764 11.047 11.5534 12.258 11.2134 13.172C11.0844 13.5033 10.9739 13.8415 10.8824 14.185C10.9254 14.175 10.9684 14.163 11.0114 14.159C11.2514 14.139 11.4394 14.219 11.5514 14.267C11.8934 14.409 12.1284 14.707 12.2554 15.047C12.2884 15.136 12.3124 15.232 12.3264 15.331C12.3411 15.3717 12.348 15.4148 12.3464 15.458C12.3085 16.7038 12.3128 17.9505 12.3594 19.196C12.3824 19.734 12.4164 20.208 12.4594 20.582C12.5024 20.955 12.5634 21.239 12.6024 21.335C12.7304 21.655 12.9174 22.074 13.2554 22.359C13.5934 22.643 14.0784 22.833 14.9644 22.643C15.7324 22.478 16.2064 22.249 16.5234 21.92C16.8394 21.591 17.0284 21.133 17.1494 20.432C17.3304 19.382 17.6944 16.337 17.7384 15.764C17.7184 15.332 17.7824 15 17.9204 14.747C18.0624 14.487 18.2824 14.328 18.4724 14.242C18.5674 14.199 18.6564 14.17 18.7294 14.149C18.6521 14.0379 18.571 13.9295 18.4864 13.824C18.2124 13.4918 17.9881 13.1216 17.8204 12.725C17.74 12.5612 17.6543 12.4001 17.5634 12.242C17.4304 12.002 17.2624 11.702 17.0864 11.365C16.7344 10.69 16.3514 9.87199 16.1524 9.075C15.9544 8.27899 15.9254 7.455 16.4334 6.87401C16.8834 6.35801 17.6734 6.144 18.8594 6.264C18.8244 6.159 18.8034 6.072 18.7444 5.93201C18.4762 5.30089 18.1263 4.70779 17.7034 4.16801C16.6984 2.883 15.0714 1.609 12.5574 1.568H12.4424V1.566ZM5.80039 1.618C5.67337 1.618 5.54636 1.622 5.42036 1.629C4.41037 1.687 3.45537 1.98 2.77237 2.704C2.08837 3.428 1.63837 4.61501 1.73637 6.58001C1.75537 6.95201 1.91737 7.99399 2.19537 9.23201C2.47237 10.47 2.86537 11.927 3.33737 13.214C3.81037 14.501 4.38337 15.621 4.92739 16.151C5.20136 16.416 5.43937 16.523 5.65537 16.514C5.87239 16.504 6.13339 16.379 6.45236 15.996C7.03399 15.2945 7.63762 14.6114 8.26237 13.948C7.81909 13.5631 7.47982 13.0728 7.27586 12.5223C7.07194 11.9718 7.00984 11.3788 7.09537 10.798C7.19839 10.059 7.21237 9.36799 7.20037 8.82199C7.18837 8.29001 7.15039 7.93601 7.15039 7.71499C7.1502 7.70865 7.1502 7.70235 7.15039 7.69601V7.69099L7.14937 7.68499V7.68401C7.14877 6.5328 7.34914 5.39033 7.74139 4.308C8.02136 3.564 8.43836 2.808 9.06337 2.196C8.44939 1.994 7.35937 1.686 6.17936 1.628C6.0528 1.6215 5.92612 1.61817 5.79937 1.618H5.80039ZM18.1984 6.9C17.5194 6.909 17.1384 7.08401 16.9384 7.31299C16.6554 7.638 16.6284 8.208 16.8044 8.91C16.9794 9.61301 17.3414 10.399 17.6814 11.052C17.8514 11.379 18.0164 11.673 18.1494 11.912C18.2834 12.152 18.3814 12.322 18.4414 12.467C18.4964 12.601 18.5574 12.719 18.6194 12.829C18.8824 12.274 18.9294 11.729 18.9024 11.161C18.8674 10.458 18.7044 9.73901 18.7284 9.01099C18.7554 8.16 18.9234 7.60601 18.9384 6.948C18.693 6.9162 18.4458 6.90019 18.1984 6.9ZM9.96439 7.01501C9.75694 7.01693 9.55035 7.04175 9.34837 7.089C8.94581 7.1868 8.55806 7.33781 8.19536 7.53799C8.0727 7.6038 7.95592 7.68008 7.84639 7.76599L7.82437 7.78601C7.83037 7.932 7.85936 8.286 7.87136 8.80699C7.88336 9.37699 7.86937 10.104 7.75939 10.891C7.52036 12.601 8.76139 14.017 10.2194 14.019C10.3044 13.668 10.4444 13.312 10.5844 12.937C10.9904 11.843 11.7894 11.045 11.1164 7.93099C11.0064 7.42099 10.7884 7.215 10.4884 7.09901C10.3202 7.03954 10.1427 7.01108 9.96439 7.01501ZM17.8814 7.21901H17.9314C17.9974 7.221 18.0584 7.22801 18.1114 7.24099C18.1654 7.25299 18.2114 7.27099 18.2494 7.296C18.2689 7.30808 18.2856 7.32409 18.2985 7.34306C18.3115 7.362 18.3202 7.38345 18.3244 7.40599L18.3234 7.41401C18.3253 7.46149 18.3132 7.50844 18.2884 7.54901C18.2589 7.60388 18.2218 7.65439 18.1784 7.69901C18.0769 7.81073 17.9411 7.88531 17.7924 7.911C17.6477 7.92848 17.5016 7.8918 17.3824 7.80799C17.3335 7.77518 17.2898 7.73543 17.2524 7.69001C17.22 7.65431 17.1982 7.61036 17.1894 7.563C17.1873 7.53994 17.1899 7.51669 17.1972 7.49468C17.2044 7.47266 17.216 7.45234 17.2314 7.43501C17.2642 7.3977 17.3039 7.36714 17.3484 7.34501C17.4444 7.29101 17.5744 7.251 17.7214 7.22899C17.7764 7.221 17.8304 7.21699 17.8814 7.21601V7.21901ZM10.0614 7.38701C10.1144 7.38701 10.1704 7.392 10.2274 7.39999C10.3804 7.42099 10.5164 7.46201 10.6204 7.52201C10.6711 7.54849 10.7163 7.58445 10.7534 7.62799C10.7736 7.65109 10.7888 7.67813 10.7981 7.70738C10.8074 7.73663 10.8106 7.76749 10.8074 7.79801C10.7977 7.8555 10.7717 7.90898 10.7324 7.95199C10.6915 8.00224 10.6432 8.04604 10.5894 8.082C10.4593 8.17414 10.2996 8.21441 10.1414 8.19499C9.97972 8.16844 9.83175 8.08811 9.72139 7.96699C9.67444 7.91824 9.63469 7.863 9.60337 7.803C9.57041 7.7502 9.55597 7.68791 9.56239 7.626C9.57739 7.518 9.66637 7.46201 9.75337 7.431C9.85249 7.39935 9.95647 7.38578 10.0604 7.39099L10.0614 7.38701ZM19.1214 14.73L19.1184 14.731C18.9714 14.784 18.8504 14.806 18.7484 14.851C18.6452 14.8907 18.5602 14.9669 18.5094 15.065C18.4464 15.18 18.3924 15.384 18.4084 15.731C18.4536 15.7622 18.5036 15.7858 18.5564 15.801C18.7274 15.853 19.0144 15.887 19.3344 15.882C19.9724 15.875 20.7574 15.726 21.1744 15.532C21.5164 15.3731 21.834 15.166 22.1174 14.917H22.1164C20.7234 15.205 19.9364 15.128 19.4534 14.929C19.3334 14.8791 19.2216 14.8117 19.1214 14.729V14.73ZM11.0904 14.824H11.0694C11.0164 14.829 10.9394 14.847 10.7904 15.012C10.4424 15.402 10.3204 15.647 10.0334 15.876C9.74636 16.104 9.37339 16.226 8.62837 16.379C8.39239 16.427 8.25739 16.48 8.16739 16.523C8.19637 16.547 8.19337 16.553 8.23736 16.576C8.34637 16.636 8.48636 16.689 8.59939 16.718C8.91937 16.798 9.44539 16.891 9.99439 16.798C10.5434 16.704 11.1144 16.441 11.6014 15.758C11.6854 15.64 11.6944 15.466 11.6254 15.279C11.5554 15.092 11.4024 14.931 11.2944 14.886C11.2301 14.855 11.1612 14.8347 11.0904 14.826V14.824Z" fill="black"/>
</g>
<defs>
<clipPath id="clip0_107_24">
<rect width="24" height="24" fill="white"/>
</clipPath>
</defs>
</svg>
