<svg width="24" height="24" viewBox="0 0 24 24" fill="none" xmlns="http://www.w3.org/2000/svg">
<g clip-path="url(#clip0_107_26)">
<path d="M23.1375 8.99985C22.725 7.42485 21.975 6.18735 20.4 6.18735H18.3V8.66235C18.3 10.5748 16.65 12.1873 14.8875 12.1873H9.3C7.7625 12.1873 6.5625 13.4999 6.5625 15.0374V20.3249C6.5625 21.7874 7.875 22.6873 9.3 23.1748C11.025 23.6998 12.7125 23.8123 14.85 23.1748C16.2375 22.7623 17.5875 21.9749 17.5875 20.3249V18.2249H12.075V17.5498H20.4C21.975 17.5498 22.6125 16.4248 23.1375 14.7373C23.7 12.8998 23.7 11.2123 23.1375 8.99985ZM15.1875 19.4998C15.75 19.4998 16.2375 19.9873 16.2375 20.5498C16.2375 21.1123 15.75 21.5999 15.1875 21.5999C14.625 21.6374 14.1375 21.1123 14.1375 20.5498C14.1 19.9873 14.5875 19.4998 15.1875 19.4998ZM9.0375 11.4748H14.5875C16.125 11.4748 17.325 10.1998 17.325 8.62485V3.41235C17.325 1.94985 16.05 0.824854 14.5875 0.562354C12.75 0.299853 10.725 0.299853 9.0375 0.562354C6.675 0.974854 6.3 1.83735 6.3 3.41235V5.51235H11.85V6.18735H4.275C2.7 6.18735 1.275 7.19985 0.8625 8.99985C0.3375 11.0998 0.3375 12.4124 0.8625 14.5874C1.275 16.2374 2.175 17.3999 3.825 17.3999H5.625V14.8874C5.5875 13.0499 7.2 11.4748 9.0375 11.4748ZM8.7 4.08735C8.1375 4.08735 7.65 3.59985 7.65 3.03735C7.65 2.47485 8.1375 1.98735 8.7 1.98735C9.2625 1.98735 9.75 2.47485 9.75 3.03735C9.75 3.59985 9.2625 4.08735 8.7 4.08735Z" fill="black"/>
</g>
<defs>
<clipPath id="clip0_107_26">
<rect width="24" height="24" fill="white"/>
</clipPath>
</defs>
</svg>
