<svg width="24" height="24" viewBox="0 0 24 24" fill="none" xmlns="http://www.w3.org/2000/svg">
<path d="M19.35 8.47485C19.0875 8.43735 18.8625 8.32485 18.6 8.24985C18.6375 8.09985 18.6375 7.94985 18.7125 7.72485C19.2375 5.02485 18.8625 2.88737 17.6625 2.13737C16.4625 1.46237 14.5125 2.17487 12.5625 3.86235C12.4125 4.01235 12.15 4.16235 12 4.38735C11.8875 4.27485 11.7375 4.16235 11.625 4.01235C9.5625 2.17487 7.5375 1.42487 6.2625 2.13737C5.0625 2.81237 4.6875 4.87485 5.2125 7.38735C5.25 7.64985 5.325 7.91235 5.3625 8.13735C5.1 8.17485 4.8 8.28735 4.5375 8.39985C2.1 9.26235 0.375 10.6498 0.375 11.9623C0.375 13.3873 2.2125 14.8124 4.725 15.6374C4.95 15.6749 5.1375 15.7874 5.3625 15.7874C5.325 16.0499 5.2125 16.3123 5.2125 16.6123C4.725 19.0873 5.1 21.0748 6.3 21.7498C7.5 22.4998 9.6 21.7499 11.55 19.9499C11.7 19.7999 11.85 19.6874 12.0375 19.5374C12.1875 19.6874 12.45 19.9123 12.675 20.0623C14.55 21.7498 16.5 22.4248 17.7375 21.7498C18.9375 20.9998 19.35 18.8999 18.825 16.2749C18.7875 16.1249 18.7875 15.8624 18.675 15.6374C18.825 15.5999 18.9375 15.5998 19.0875 15.4873C21.7125 14.6998 23.625 13.2748 23.625 11.8498C23.5875 10.6873 21.7875 9.33735 19.35 8.47485ZM13.2 4.64985C14.8875 3.18737 16.4625 2.66237 17.2125 3.03737C17.9625 3.44987 18.2625 5.24985 17.775 7.61235C17.7375 7.76235 17.7375 7.87485 17.6625 8.09985C16.65 7.87485 15.675 7.68735 14.625 7.61235C14.0625 6.78735 13.425 5.92485 12.75 5.24985C12.9 4.94985 13.05 4.79985 13.2 4.64985ZM7.9875 14.3623C8.2125 14.7748 8.475 15.1499 8.7375 15.5249C7.9875 15.4874 7.3125 15.3749 6.6375 15.2249C6.7875 14.5874 7.05 13.9123 7.3875 13.2373C7.5375 13.5748 7.8 14.0248 7.9875 14.3623ZM6.6375 8.96235C7.275 8.81235 7.95 8.69985 8.7 8.58735C8.4375 8.96235 8.2125 9.33735 8.025 9.74985C7.8375 10.1623 7.6125 10.4999 7.3875 10.9499C7.05 10.2374 6.8625 9.59985 6.6375 8.96235ZM7.8375 12.0748C8.1 11.4374 8.475 10.8749 8.85 10.2374C9.225 9.59985 9.6 9.03735 9.9375 8.43735C10.6125 8.39985 11.2875 8.39985 12 8.39985C12.675 8.39985 13.425 8.43735 14.0625 8.43735C14.475 8.99985 14.8125 9.59985 15.15 10.1623C15.525 10.7248 15.825 11.3623 16.1625 11.9998C15.9 12.6373 15.525 13.1999 15.15 13.8374C14.775 14.4749 14.4 15.0374 14.0625 15.6374C13.3875 15.6749 12.7125 15.6748 11.9625 15.6748C11.2125 15.6748 10.5375 15.6374 9.9 15.6374C9.4875 15.0749 9.15 14.4749 8.8125 13.8374C8.475 13.1999 8.175 12.7123 7.8375 12.0748ZM16.0125 14.3623C16.2375 13.9498 16.425 13.5749 16.65 13.1624C16.9125 13.7999 17.175 14.4749 17.4 15.1499C16.725 15.2999 15.975 15.4124 15.225 15.5249C15.525 15.1499 15.7875 14.7373 16.0125 14.3623ZM16.6875 10.9123C16.4625 10.4998 16.275 10.1248 16.05 9.71235C15.825 9.29985 15.5625 8.96235 15.375 8.62485C16.125 8.73735 16.8 8.84985 17.4375 8.99985C17.2125 9.63735 16.95 10.2748 16.6875 10.9123ZM12 5.84985C12.4875 6.37485 12.9 6.89985 13.3125 7.46235C12.4125 7.42485 11.5125 7.42485 10.6125 7.46235C11.1 6.86235 11.5875 6.33735 12 5.84985ZM6.75 3.07487C7.5 2.66237 9.225 3.22487 10.95 4.87485C11.0625 4.98735 11.175 5.09985 11.325 5.17485C10.65 5.92485 10.0125 6.74985 9.375 7.53735C8.3625 7.64985 7.3125 7.79985 6.3375 8.02485C6.3 7.79985 6.225 7.53735 6.1875 7.34985C5.775 5.13735 6.0375 3.48737 6.75 3.07487ZM5.7 14.9999C5.55 14.9624 5.325 14.8874 5.1375 14.8499C4.125 14.5874 3.075 14.0623 2.25 13.4248C1.725 13.0498 1.4625 12.5998 1.35 12.0748C1.35 11.2499 2.8125 10.1999 4.875 9.44985C5.1375 9.33735 5.4 9.29985 5.6625 9.18735C5.9625 10.1998 6.3375 11.1374 6.75 12.0748C6.375 13.0123 5.9625 13.9499 5.7 14.9999ZM10.9125 19.3874C10.1625 20.0624 9.3 20.5874 8.325 20.9624C7.8 21.2249 7.2375 21.2248 6.75 20.9998C6 20.5873 5.7375 19.0124 6.1125 16.8374C6.15 16.5749 6.225 16.3124 6.2625 16.0874C7.275 16.3124 8.325 16.4624 9.3 16.4999C9.8625 17.3249 10.575 18.1873 11.25 18.9373C11.2125 19.1623 11.0625 19.2749 10.9125 19.3874ZM12.0375 18.3374C11.55 17.8124 11.1375 17.2874 10.6875 16.7249C11.1 16.7249 11.5125 16.7624 12 16.7624C12.4875 16.7624 12.9375 16.7624 13.35 16.7249C12.9375 17.2124 12.525 17.7374 12.0375 18.3374ZM17.9625 19.6499C17.925 20.1749 17.6625 20.7374 17.2125 21.0748C16.4625 21.4873 14.9625 20.9623 13.3125 19.4998C13.1625 19.3498 12.9375 19.1999 12.75 18.9749C13.425 18.2249 14.0625 17.3999 14.625 16.5374C15.675 16.4999 16.6875 16.2748 17.6625 16.0498C17.7 16.1998 17.7 16.4249 17.775 16.5749C18.0375 17.6249 18.0375 18.6749 17.9625 19.6499ZM18.7875 14.8124C18.675 14.8499 18.525 14.8498 18.375 14.9248C18.075 13.9123 17.625 12.9749 17.2125 12.0374C17.625 11.1374 18 10.1623 18.3 9.18735C18.5625 9.22485 18.7875 9.33735 18.975 9.41235C21.075 10.1623 22.5375 11.2124 22.5375 12.0374C22.575 12.8999 21.0375 14.0624 18.7875 14.8124ZM12 14.0999C13.1625 14.0999 14.0625 13.1624 14.0625 12.0374C14.0625 10.9124 13.125 9.97485 12 9.97485C10.9125 9.97485 9.9375 10.9124 9.9375 12.0374C9.9375 13.1624 10.8375 14.0999 12 14.0999Z" fill="black"/>
</svg>
