<svg width="24" height="24" viewBox="0 0 24 24" fill="none" xmlns="http://www.w3.org/2000/svg">
<path fill-rule="evenodd" clip-rule="evenodd" d="M6.59464 9.75C7.33297 6.75011 9.17936 5.25 12.1331 5.25C16.5639 5.25 17.1177 8.625 19.3331 9.1875C20.8101 9.56261 22.1023 9.00011 23.21 7.5C22.4716 10.4999 20.6253 12 17.6715 12C13.2408 12 12.6869 8.625 10.4715 8.0625C8.99452 7.68739 7.70231 8.24989 6.59464 9.75ZM1.05615 16.5C1.79449 13.5001 3.64088 12 6.59464 12C11.0254 12 11.5792 15.375 13.7946 15.9375C15.2716 16.3126 16.5639 15.7501 17.6715 14.25C16.9332 17.2499 15.0868 18.75 12.1331 18.75C7.70231 18.75 7.14847 15.375 4.93309 14.8125C3.45603 14.4374 2.16384 14.9999 1.05615 16.5Z" fill="black"/>
</svg>
