<svg width="24" height="24" viewBox="0 0 24 24" fill="none" xmlns="http://www.w3.org/2000/svg">
<g clip-path="url(#clip0_109_2)">
<mask id="mask0_109_2" style="mask-type:luminance" maskUnits="userSpaceOnUse" x="0" y="0" width="24" height="24">
<path d="M24 0H0V24H24V0Z" fill="white"/>
</mask>
<g mask="url(#mask0_109_2)">
<path d="M21.619 0H2.60359C1.32929 0 0.295898 1.04953 0.295898 2.34375V21.6562C0.295898 22.9505 1.32929 24 2.60359 24H21.619C22.8933 24 23.9267 22.9505 23.9267 21.6562V2.34375C23.9267 1.04953 22.8933 0 21.619 0ZM14.0036 13.3125H11.0497V21.8906H8.69587V13.3125H5.74204V11.3906H14.0036V13.3125ZM21.619 20.3484C21.4343 20.7703 21.1159 21.0844 20.742 21.3328C20.3728 21.5625 19.9574 21.7406 19.4497 21.8484C18.942 21.9563 18.4343 22.0078 17.8805 22.0078C17.3267 22.0078 16.7728 21.9609 16.2651 21.8625C15.7574 21.7641 15.3005 21.6187 14.9267 21.4219V19.1696C14.8976 19.1461 14.8676 19.1231 14.839 19.0988L14.9267 19.0781V19.1696C15.319 19.4859 15.751 19.7297 16.2236 19.8956C16.6851 20.0738 17.1928 20.1628 17.7005 20.1628C18.0236 20.1628 18.2682 20.1347 18.4851 20.0831C18.7113 20.0269 18.8913 19.9519 19.039 19.8581C19.1866 19.7644 19.2965 19.6519 19.3667 19.5206C19.4369 19.3894 19.4728 19.2488 19.4728 19.0988C19.4728 18.8831 19.4128 18.6956 19.2975 18.5363C19.1913 18.3769 19.0344 18.2269 18.8359 18.0909C18.6513 17.955 18.4205 17.8238 18.1436 17.6972C17.8667 17.5706 17.5851 17.4394 17.2667 17.3081C16.4821 16.9331 15.8636 16.5581 15.4667 16.0425C15.0651 15.5737 14.8667 14.9644 14.8667 14.2612C14.8667 13.6987 14.9729 13.2487 15.1898 12.855C15.4205 12.4331 15.6929 12.1238 16.0667 11.8706C16.4359 11.6128 16.8513 11.4253 17.359 11.3081C17.8667 11.1909 18.3744 11.13 18.9282 11.13C19.4821 11.13 19.9436 11.1628 20.359 11.2284C20.7744 11.2941 21.1621 11.3972 21.5128 11.5331V13.7363C21.3513 13.6144 21.1621 13.5066 20.959 13.4128C20.7421 13.3191 20.5297 13.2441 20.3128 13.1831C20.0959 13.1222 19.879 13.0767 19.6667 13.0472C19.4636 13.0176 19.2605 13.0031 19.0667 13.0031C18.7851 13.0031 18.5451 13.0266 18.3282 13.0781C18.1067 13.1297 17.9221 13.2 17.7744 13.2938C17.6267 13.3875 17.5117 13.4953 17.4282 13.6266C17.3446 13.7578 17.3036 13.9031 17.3036 14.0625C17.3036 14.2359 17.3497 14.3906 17.442 14.5312C17.5343 14.6672 17.6636 14.7984 17.8343 14.925C17.9867 15.0469 18.1943 15.1688 18.4343 15.2906C18.7113 15.4125 18.9605 15.5344 19.2651 15.6609C19.6805 15.8391 20.0497 16.0359 20.3728 16.2234C20.6959 16.4109 20.9682 16.6313 21.2036 16.8797C21.4528 17.1141 21.6328 17.3953 21.7574 17.7234C21.882 18.0516 21.9466 18.4219 21.9466 18.8484C21.9466 19.4578 21.8036 19.9266 21.619 20.3484Z" fill="black"/>
</g>
</g>
<defs>
<clipPath id="clip0_109_2">
<rect width="24" height="24" fill="white"/>
</clipPath>
</defs>
</svg>
